<?xml version="1.0" encoding="UTF-8"?>
<!DOCTYPE svg PUBLIC "-//W3C//DTD SVG 1.1//EN" "http://www.w3.org/Graphics/SVG/1.1/DTD/svg11.dtd">
<!-- Creator: CorelDRAW 2020 (64-Bit) -->
<svg xmlns="http://www.w3.org/2000/svg" xml:space="preserve" width="426px" height="426px" version="1.1" shape-rendering="geometricPrecision" text-rendering="geometricPrecision" image-rendering="optimizeQuality" fill-rule="evenodd" clip-rule="evenodd"
viewBox="0 0 200040 200040"
 xmlns:xlink="http://www.w3.org/1999/xlink"
 xmlns:xodm="http://www.corel.com/coreldraw/odm/2003">
 <g id="Слой_x0020_1">
  <metadata id="CorelCorpID_0Corel-Layer"/>
  <circle fill="white" cx="100020" cy="100020" r="100020"/>
  <path fill="black" fill-rule="nonzero" d="M100020 13200c23950,0 45660,9720 61380,25440 15720,15700 25440,37410 25440,61380 0,23970 -9720,45680 -25430,61390 -15710,15710 -37420,25430 -61390,25430 -23970,0 -45680,-9720 -61390,-25430 -15710,-15730 -25430,-37440 -25430,-61390 0,-23950 9720,-45640 25430,-61370 15750,-15730 37440,-25450 61390,-25450zm53530 33280c-13680,-13700 -32610,-22170 -53530,-22170 -20920,0 -39850,8470 -53530,22160 -13710,13700 -22180,32630 -22180,53550 0,20920 8470,39850 22160,53530 13710,13700 32640,22180 53550,22180 20900,0 39840,-8480 53530,-22180 13700,-13690 22180,-32630 22180,-53530 0,-20910 -8480,-39840 -22180,-53540z"/>
  <path fill="black" fill-rule="nonzero" d="M53550 126560c-1960,1950 -5120,1950 -7080,0 -1950,-1950 -1950,-5120 0,-7070l50010 -50010c1950,-1950 5120,-1950 7080,0l50010 50010c1950,1950 1950,5120 0,7070 -1960,1950 -5130,1950 -7080,0l-46470 -46470 -46470 46470z"/>
 </g>
</svg>
