<?xml version="1.0" encoding="UTF-8" standalone="no"?> <!-- Created with Vectornator for iOS (http://vectornator.io/) --><!DOCTYPE svg PUBLIC "-//W3C//DTD SVG 1.1//EN" "http://www.w3.org/Graphics/SVG/1.1/DTD/svg11.dtd">
<svg height="100%" style="fill-rule:nonzero;clip-rule:evenodd;stroke-linecap:round;stroke-linejoin:round;" xmlns:xlink="http://www.w3.org/1999/xlink" xmlns="http://www.w3.org/2000/svg" xml:space="preserve" width="100%" xmlns:vectornator="http://vectornator.io" version="1.1" viewBox="0 0 170.079 170.079">
<metadata>
<vectornator:setting key="DimensionsVisible" value="1"/>
<vectornator:setting key="PencilOnly" value="0"/>
<vectornator:setting key="SnapToPoints" value="0"/>
<vectornator:setting key="OutlineMode" value="0"/>
<vectornator:setting key="CMYKEnabledKey" value="0"/>
<vectornator:setting key="RulersVisible" value="1"/>
<vectornator:setting key="SnapToEdges" value="0"/>
<vectornator:setting key="GuidesVisible" value="1"/>
<vectornator:setting key="DisplayWhiteBackground" value="0"/>
<vectornator:setting key="doHistoryDisabled" value="0"/>
<vectornator:setting key="SnapToGuides" value="1"/>
<vectornator:setting key="TimeLapseWatermarkDisabled" value="0"/>
<vectornator:setting key="Units" value="Points"/>
<vectornator:setting key="DynamicGuides" value="0"/>
<vectornator:setting key="IsolateActiveLayer" value="0"/>
<vectornator:setting key="SnapToGrid" value="0"/>
</metadata>
<defs/>
<g id="Capa 1" vectornator:layerName="Capa 1">
<path d="M9.92281+125.156C9.92281+127.274+8.20572+128.991+6.08774+128.991C3.97153+128.991+2.25444+127.274+2.25444+125.156C2.25444+123.04+3.97153+121.323+6.08774+121.323C8.20572+121.323+9.92281+123.04+9.92281+125.156" fill-rule="evenodd" fill="#4a4a5a" opacity="1"/>
<path d="M168.478+121.323C168.478+123.439+166.761+125.156+164.643+125.156C162.527+125.156+160.81+123.439+160.81+121.323C160.81+119.205+162.527+117.488+164.643+117.488C166.761+117.488+168.478+119.205+168.478+121.323" fill-rule="evenodd" fill="#4a4a5a" opacity="1"/>
<path d="M87.9394+137.337C87.9394+137.337+91.4782+135.244+93.731+131.435C95.9821+127.623+98.6358+126.429+101.694+125.981C104.75+125.534+108.772+124.487+109.656+122.545C109.656+122.545+108.369+130.389+95.8207+136.514C95.8207+136.514+104.83+132.482+119.63+138.756C119.63+138.756+114.965+138.756+111.426+140.773C107.886+142.788+95.7408+147.123+87.9394+137.337" fill-rule="evenodd" fill="#4a4a5a" opacity="1"/>
<path d="M106.037+132.929C106.037+132.929+108.852+130.687+110.702+127.252C112.552+123.815+114.564+121.2+118.021+120.304C121.48+119.407+123.087+119.332+124.134+117.241C124.134+117.241+120.836+129.716+106.037+132.929" fill-rule="evenodd" fill="#4a4a5a" opacity="1"/>
<path d="M109.977+133.826C109.977+133.826+120.996+128.448+135.715+131.435C135.715+131.435+131.612+133.452+128.476+135.32C125.34+137.188+119.708+137.039+117.216+135.843C114.724+134.648+109.977+133.826+109.977+133.826" fill-rule="evenodd" fill="#4a4a5a" opacity="1"/>
<path d="M122.204+126.28C122.204+126.28+135.396+121.574+136.439+109.769C136.439+109.769+133.303+112.011+131.132+113.58C128.961+115.149+126.869+117.688+125.823+120.304C124.778+122.917+122.204+126.28+122.204+126.28" fill-rule="evenodd" fill="#4a4a5a" opacity="1"/>
<path d="M123.893+128.223C123.893+128.223+135.235+120.902+147.378+121.648C147.378+121.648+144.322+123.591+142.875+125.457C141.427+127.327+136.842+128.597+132.338+128.372C127.834+128.148+123.893+128.223+123.893+128.223" fill-rule="evenodd" fill="#4a4a5a" opacity="1"/>
<path d="M135.474+120.528C135.474+120.528+142.472+112.609+155.421+110.143C155.421+110.143+154.618+111.114+152.285+114.402C149.951+117.688+146.976+119.183+143.435+119.632C139.896+120.079+135.474+120.528+135.474+120.528" fill-rule="evenodd" fill="#4a4a5a" opacity="1"/>
<path d="M136.922+116.644C136.922+116.644+147.538+111.04+145.77+100.73C145.77+100.73+139.416+105.362+136.922+116.644" fill-rule="evenodd" fill="#4a4a5a" opacity="1"/>
<path d="M148.666+109.547C148.666+109.547+160.73+107.079+164.189+95.7993C164.189+95.7993+153.493+99.9838+148.666+109.547" fill-rule="evenodd" fill="#4a4a5a" opacity="1"/>
<path d="M148.907+103.719C148.907+103.719+157.434+95.5755+153.088+85.9381C153.088+85.9381+151.884+89.3758+150.114+91.9142C148.345+94.4544+148.184+98.9387+148.907+103.719" fill-rule="evenodd" fill="#4a4a5a" opacity="1"/>
<path d="M157.351+96.0235C157.351+96.0235+161.614+93.3344+164.028+91.3175C166.44+89.3006+169.176+84.1458+169.176+80.3356C169.176+80.3356+161.051+84.8181+157.351+96.0235" fill-rule="evenodd" fill="#4a4a5a" opacity="1"/>
<path d="M157.032+89.4496C157.032+89.4496+163.948+79.7378+155.584+71.5958C155.584+71.5958+155.664+75.2552+155.423+76.8996C155.18+78.5422+154.939+82.9502+155.904+85.0416C156.87+87.133+157.032+89.4496+157.032+89.4496" fill-rule="evenodd" fill="#4a4a5a" opacity="1"/>
<path d="M162.098+83.0245C162.098+83.0245+161.131+71.6701+168.854+63.0775C168.854+63.0775+170.783+71.7446+168.532+75.7784C166.279+79.8121+162.822+81.829+162.098+83.0245" fill-rule="evenodd" fill="#4a4a5a" opacity="1"/>
<path d="M160.248+72.7149C160.248+72.7149+162.74+63.9006+152.927+57.0269C152.927+57.0269+154.296+60.4629+154.697+63.3028C155.1+66.141+157.512+69.5025+158.72+70.6235C159.925+71.7446+160.248+72.7149+160.248+72.7149" fill-rule="evenodd" fill="#4a4a5a" opacity="1"/>
<path d="M163.222+66.6639C163.222+66.6639+160.008+57.5002+164.296+47.3396C164.296+47.3396+167.405+51.125+167.405+56.9024C167.405+62.6799+163.222+66.6639+163.222+66.6639" fill-rule="evenodd" fill="#4a4a5a" opacity="1"/>
<path d="M159.256+59.3927C159.256+59.3927+160.973+50.1297+150.14+43.5558C150.14+43.5558+151.749+51.2259+155.075+54.8109C158.399+58.3958+159.256+59.3927+159.256+59.3927" fill-rule="evenodd" fill="#4a4a5a" opacity="1"/>
<path d="M160.863+51.4235C160.863+51.4235+161.617+46.7423+162.045+43.2567C162.472+39.7693+159.577+36.2819+156.897+32.8974C156.897+32.8974+155.394+38.9728+157.433+43.7534C159.471+48.5357+160.863+51.4235+160.863+51.4235" fill-rule="evenodd" fill="#4a4a5a" opacity="1"/>
<path d="M154.644+42.4588C154.644+42.4588+152.391+33.6924+141.883+30.5066C141.883+30.5066+143.492+36.3834+154.644+42.4588" fill-rule="evenodd" fill="#4a4a5a" opacity="1"/>
<path d="M154.321+35.3868C154.321+35.3868+148.1+30.7056+147.35+19.8478C147.35+19.8478+152.177+22.4377+153.679+25.7246C155.178+29.0116+154.321+35.3868+154.321+35.3868" fill-rule="evenodd" fill="#4a4a5a" opacity="1"/>
<path d="M146.924+29.4105C146.924+29.4105+143.063+21.641+132.123+22.0401C132.123+22.0401+136.629+28.5147+146.924+29.4105" fill-rule="evenodd" fill="#4a4a5a" opacity="1"/>
<path d="M144.242+22.6372C144.242+22.6372+145.53+15.9622+132.982+9.18963C132.982+9.18963+133.732+14.9671+144.242+22.6372" fill-rule="evenodd" fill="#4a4a5a" opacity="1"/>
<path d="M137.7+20.1462C137.7+20.1462+133.303+13.771+123.864+15.2663C123.864+15.2663+128.049+20.4442+137.7+20.1462" fill-rule="evenodd" fill="#4a4a5a" opacity="1"/>
<path d="M131.481+12.875C131.481+12.875+128.799+4.8075+117.968+2.31701C117.968+2.31701+118.507+8.89091+131.481+12.875" fill-rule="evenodd" fill="#4a4a5a" opacity="1"/>
<path d="M125.69+12.9747C125.69+12.9747+120.969+7.29657+110.674+9.48905C110.674+9.48905+115.502+13.8705+125.69+12.9747" fill-rule="evenodd" fill="#4a4a5a" opacity="1"/>
<path d="M117.752+7.19742C117.752+7.19742+111.531-0.770743+100.379+1.32063C100.379+1.32063+102.738+7.09808+117.752+7.19742" fill-rule="evenodd" fill="#4a4a5a" opacity="1"/>
<path d="M63.5871+132.929C63.5871+132.929+60.772+130.687+58.9236+127.252C57.0717+123.815+55.0601+121.2+51.6029+120.304C48.1439+119.407+46.5368+119.332+45.4902+117.241C45.4902+117.241+48.7878+129.716+63.5871+132.929" fill-rule="evenodd" fill="#4a4a5a" opacity="1"/>
<path d="M59.6461+133.826C59.6461+133.826+48.6269+128.448+33.9075+131.435C33.9075+131.435+38.0104+133.452+41.1466+135.32C44.2827+137.188+49.9129+137.039+52.407+135.843C54.901+134.648+59.6461+133.826+59.6461+133.826" fill-rule="evenodd" fill="#4a4a5a" opacity="1"/>
<path d="M47.4205+126.28C47.4205+126.28+34.2283+121.574+33.1835+109.769C33.1835+109.769+36.3215+112.011+38.4927+113.58C40.6639+115.149+42.7553+117.688+43.8001+120.304C44.8466+122.917+47.4205+126.28+47.4205+126.28" fill-rule="evenodd" fill="#4a4a5a" opacity="1"/>
<path d="M45.7316+128.223C45.7316+128.223+34.3896+120.902+22.2458+121.648C22.2458+121.648+25.3021+123.591+26.7496+125.457C28.1971+127.327+32.7825+128.597+37.2863+128.372C41.7901+128.148+45.7316+128.223+45.7316+128.223" fill-rule="evenodd" fill="#4a4a5a" opacity="1"/>
<path d="M34.1496+120.528C34.1496+120.528+27.1517+112.609+14.2026+110.143C14.2026+110.143+15.0061+111.114+17.3388+114.402C19.6714+117.688+22.6479+119.183+26.1868+119.632C29.7256+120.079+34.1496+120.528+34.1496+120.528" fill-rule="evenodd" fill="#4a4a5a" opacity="1"/>
<path d="M32.7014+116.644C32.7014+116.644+22.0849+111.04+23.8534+100.73C23.8534+100.73+30.2074+105.362+32.7014+116.644" fill-rule="evenodd" fill="#4a4a5a" opacity="1"/>
<path d="M20.9574+109.547C20.9574+109.547+8.89344+107.079+5.43621+95.7993C5.43621+95.7993+16.1325+99.9838+20.9574+109.547" fill-rule="evenodd" fill="#4a4a5a" opacity="1"/>
<path d="M20.7165+103.719C20.7165+103.719+12.1914+95.5755+16.5338+85.9381C16.5338+85.9381+17.74+89.3758+19.5103+91.9142C21.2806+94.4544+21.4403+98.9387+20.7165+103.719" fill-rule="evenodd" fill="#4a4a5a" opacity="1"/>
<path d="M12.2718+96.0235C12.2718+96.0235+8.00918+93.3344+5.59496+91.3175C3.18252+89.3006+0.447241+84.1458+0.447241+80.3356C0.447241+80.3356+8.57149+84.8181+12.2718+96.0235" fill-rule="evenodd" fill="#4a4a5a" opacity="1"/>
<path d="M12.5939+89.4496C12.5939+89.4496+5.67585+79.7378+14.0413+71.5958C14.0413+71.5958+13.9615+75.2552+14.2028+76.8996C14.4422+78.5422+14.6853+82.9502+13.7185+85.0416C12.7535+87.133+12.5939+89.4496+12.5939+89.4496" fill-rule="evenodd" fill="#4a4a5a" opacity="1"/>
<path d="M7.52616+83.0245C7.52616+83.0245+8.49114+71.6701+0.769546+63.0775C0.769546+63.0775-1.16041+71.7446+1.09239+75.7784C3.34341+79.8121+6.80243+81.829+7.52616+83.0245" fill-rule="evenodd" fill="#4a4a5a" opacity="1"/>
<path d="M9.3754+72.7149C9.3754+72.7149+6.88313+63.9006+16.6943+57.0269C16.6943+57.0269+15.3285+60.4629+14.9258+63.3028C14.5231+66.141+12.1107+69.5025+10.9045+70.6235C9.69824+71.7446+9.3754+72.7149+9.3754+72.7149" fill-rule="evenodd" fill="#4a4a5a" opacity="1"/>
<path d="M6.40012+66.6639C6.40012+66.6639+9.61612+57.5002+5.32871+47.3396C5.32871+47.3396+2.21737+51.125+2.21737+56.9024C2.21737+62.6799+6.40012+66.6639+6.40012+66.6639" fill-rule="evenodd" fill="#4a4a5a" opacity="1"/>
<path d="M10.3688+59.3927C10.3688+59.3927+8.65167+50.1297+19.4828+43.5558C19.4828+43.5558+17.8757+51.2259+14.5497+54.8109C11.2255+58.3958+10.3688+59.3927+10.3688+59.3927" fill-rule="evenodd" fill="#4a4a5a" opacity="1"/>
<path d="M8.75952+51.4235C8.75952+51.4235+8.0074+46.7423+7.57991+43.2567C7.15064+39.7693+10.0456+36.2819+12.7276+32.8974C12.7276+32.8974+14.2283+38.9728+12.1919+43.7534C10.1538+48.5357+8.75952+51.4235+8.75952+51.4235" fill-rule="evenodd" fill="#4a4a5a" opacity="1"/>
<path d="M14.9794+42.4588C14.9794+42.4588+17.2322+33.6924+27.7405+30.5066C27.7405+30.5066+26.1316+36.3834+14.9794+42.4588" fill-rule="evenodd" fill="#4a4a5a" opacity="1"/>
<path d="M15.3006+35.3868C15.3006+35.3868+21.5215+30.7056+22.2719+19.8478C22.2719+19.8478+17.4452+22.4377+15.9445+25.7246C14.4438+29.0116+15.3006+35.3868+15.3006+35.3868" fill-rule="evenodd" fill="#4a4a5a" opacity="1"/>
<path d="M22.701+29.4105C22.701+29.4105+26.5609+21.641+37.5002+22.0401C37.5002+22.0401+32.9964+28.5147+22.701+29.4105" fill-rule="evenodd" fill="#4a4a5a" opacity="1"/>
<path d="M25.3816+22.6372C25.3816+22.6372+24.0938+15.9622+36.642+9.18963C36.642+9.18963+35.8917+14.9671+25.3816+22.6372" fill-rule="evenodd" fill="#4a4a5a" opacity="1"/>
<path d="M31.9245+20.1462C31.9245+20.1462+36.3218+13.771+45.7588+15.2663C45.7588+15.2663+41.576+20.4442+31.9245+20.1462" fill-rule="evenodd" fill="#4a4a5a" opacity="1"/>
<path d="M38.1432+12.875C38.1432+12.875+40.8235+4.8075+51.6565+2.31701C51.6565+2.31701+51.119+8.89091+38.1432+12.875" fill-rule="evenodd" fill="#4a4a5a" opacity="1"/>
<path d="M43.9343+12.9747C43.9343+12.9747+48.6546+7.29657+58.9482+9.48905C58.9482+9.48905+54.1234+13.8705+43.9343+12.9747" fill-rule="evenodd" fill="#4a4a5a" opacity="1"/>
<path d="M51.8707+7.19742C51.8707+7.19742+58.0917-0.770743+69.2439+1.32063C69.2439+1.32063+66.8847+7.09808+51.8707+7.19742" fill-rule="evenodd" fill="#4a4a5a" opacity="1"/>
<path d="M54.2647+148.642C54.2647+148.642+56.0883+153.122+63.7034+150.435C71.3168+147.744+76.6792+145.055+80.6473+144.258C80.6473+144.258+77.5377+143.363+71.1022+145.255C64.6684+147.146+59.4125+148.642+54.2647+148.642" fill-rule="evenodd" fill="#4a4a5a" opacity="1"/>
<path d="M51.6907+139.776C51.6907+139.776+55.3377+140.473+61.1294+142.366C66.9192+144.258+71.6377+144.258+75.8204+142.465C80.0032+140.673+85.3655+141.869+89.5465+143.661C93.731+145.454+105.848+150.135+109.494+150.832C113.141+151.529+115.181+149.837+115.717+147.943C115.717+147.943+113.681+148.443+108.96+147.646C104.241+146.848+92.5532+144.955+85.7948+139.178C79.0382+133.401+76.0351+128.024+69.8159+126.729C63.595+125.432+60.3773+123.342+60.3773+123.342C60.3773+123.342+64.8829+134.997+75.1765+137.087C75.1765+137.087+64.7747+135.095+58.8766+136.689C52.9785+138.282+51.6907+139.776+51.6907+139.776" fill-rule="evenodd" fill="#4a4a5a" opacity="1"/>
</g>
<g id="þÿ" vectornator:layerName="þÿ">
<path d="M81.5168+105.086C80.6854+103.204+79.8104+101.804+78.8915+100.885C77.6663+105.523+75.7083+109.242+73.0174+112.043C70.3265+114.843+67.3402+116.243+64.0585+116.243C59.9455+116.243+57.8891+114.033+57.8891+109.614C57.8891+108.739+57.9985+107.864+58.2172+106.989C52.5728+113.333+45.572+116.506+37.2148+116.506C29.6452+116.506+23.2241+113.705+17.9516+108.105C12.6792+102.504+10.0429+95.6563+10.0429+87.5617C10.0429+80.7796+12.0885+74.9164+16.1796+69.9722C20.2706+65.0277+25.7509+61.7899+32.6205+60.2585C35.0271+57.3269+38.0898+55.0298+41.8091+53.3671C45.5283+51.7043+49.4663+50.8731+53.623+50.8731C60.6675+50.8731+67.5153+53.542+74.166+58.8803C76.3537+57.13+78.5415+56.255+80.7292+56.255C80.9479+56.255+82.0201+56.408+83.9452+56.7144L83.9452+57.8301C82.8513+57.6112+81.8888+57.502+81.0574+57.502C79.1322+57.502+77.0756+58.2239+74.8879+59.6678C79.526+63.9996+81.845+68.5282+81.845+73.2538C81.845+76.054+81.2543+78.3183+80.0729+80.0468C78.8915+81.775+76.9225+83.208+74.166+84.3457C77.8414+87.3648+79.6791+90.8433+79.6791+94.7813C79.6791+96.0063+79.5917+97.0564+79.4166+97.9317L79.4166+99.2443C80.9043+100.732+81.9544+102.504+82.5669+104.561L81.5168+105.086ZM73.8378+97.4066C72.2188+96.8815+71.1469+96.619+70.6218+96.619C67.4276+96.619+64.6821+97.8878+62.3849+100.426C60.0878+102.963+58.9392+106.026+58.9392+109.614C58.9392+111.058+59.333+112.261+60.1206+113.224C60.9082+114.187+61.8488+114.668+62.9428+114.668C65.043+114.668+67.0558+113.136+68.981+110.074C70.9062+107.011+72.5251+102.788+73.8378+97.4066ZM74.166+96.0939C74.4723+93.5561+74.6254+91.784+74.6254+90.7777C74.6254+88.2837+73.9034+86.2491+72.4595+84.6739C72.2408+84.6739+71.9455+84.7175+71.5735+84.8051C71.2015+84.8926+70.8843+84.9364+70.6218+84.9364C69.0028+84.9364+68.1934+84.477+68.1934+83.5581C68.1934+82.858+68.7403+82.508+69.8342+82.508C70.5343+82.508+71.4094+82.7705+72.4595+83.2956C75.3474+80.9765+76.7913+76.9292+76.7913+71.1536C76.7913+67.128+75.8068+63.6494+73.8378+60.718C72.0001+62.7306+70.578+65.2574+69.5717+68.2985C68.5654+71.3395+67.4933+76.426+66.3557+83.5581C65.5681+88.3711+64.3429+93.3374+62.6803+98.4567C65.0868+96.4877+67.734+95.5033+70.6218+95.5033C71.847+95.5033+73.0284+95.7002+74.166+96.0939ZM56.839+78.8326C56.3139+73.3631+54.3121+68.9767+50.8336+65.6732C47.355+62.3696+42.9687+60.718+37.6742+60.718C38.1555+60.718+36.6679+60.9149+33.2112+61.3087C31.0672+63.6714+29.9952+66.9531+29.9952+71.1536C29.9952+75.1352+31.3953+78.5044+34.1957+81.261C36.9961+84.0175+40.387+85.3958+44.3688+85.3958C48.963+85.3958+53.1197+83.208+56.839+78.8326ZM72.7877+59.6678C67.362+54.5485+60.9738+51.9888+53.623+51.9888C46.0534+51.9888+39.665+54.5485+34.4582+59.6678L37.9368+59.6678C43.0561+59.6678+47.4317+61.2649+51.0633+64.459C54.6949+67.653+56.9702+71.9191+57.8891+77.2574C59.6393+73.8007+60.5144+70.5847+60.5144+67.6094C60.5144+65.8591+60.1644+63.912+59.4643+61.7681L60.2518+61.3087C61.1269+63.4964+61.5645+65.5092+61.5645+67.3469C61.5645+71.2848+60.4487+75.2008+58.2172+79.0951L58.2172+81.261C58.2172+86.8178+56.3577+91.6089+52.6385+95.6345C48.9192+99.6599+44.4782+101.673+39.315+101.673C35.0271+101.673+31.4281+100.251+28.5185+97.4066C25.6088+94.5624+24.1539+91.0182+24.1539+86.7741C24.1539+85.1551+24.4164+83.5799+24.9415+82.0486L25.9916+82.0486C25.4666+84.105+25.204+85.6802+25.204+86.7741C25.204+90.4932+26.4949+93.6764+29.0764+96.3237C31.6579+98.9708+34.7864+100.294+38.4618+100.294C43.1436+100.294+47.2784+98.4239+50.8664+94.6828C54.4544+90.9418+56.4452+86.3583+56.839+80.9328C53.1197+84.6519+48.963+86.5116+44.3688+86.5116C39.9496+86.5116+36.2741+85.002+33.3425+81.9829C30.4108+78.9638+28.9451+75.2446+28.9451+70.8254C28.9451+68.9439+29.142+67.3687+29.5358+66.0999C29.8421+65.0059+30.5203+63.562+31.5704+61.7681C25.3135+63.9558+20.4239+67.3905+16.9015+72.0724C13.3792+76.7541+11.6181+82.2673+11.6181+88.6118C11.6181+95.9189+14.0355+102.22+18.8705+107.514C23.7055+112.808+29.4483+115.456+36.0991+115.456C42.1373+115.456+47.0815+112.83+50.932+107.58C54.7825+102.329+58.5892+92.9872+62.3521+79.5545C64.0585+73.5163+65.5025+69.4471+66.6838+67.3469C68.0403+64.9403+70.0749+62.3806+72.7877+59.6678Z" fill-rule="evenodd" fill="#4a4a5a" opacity="1"/>
<path d="M111.023+76.6083C108.641+78.1363+106.305+78.9002+104.013+78.9002C100.194+78.9002+96.9467+77.406+94.273+74.4176C91.5992+71.4294+90.2623+67.7557+90.2623+63.3967C90.2623+59.8915+91.3633+56.364+93.5652+52.8139C98.9577+53.5779+103.261+55.7574+106.474+59.3523C109.686+62.9473+111.293+67.3962+111.293+72.6988C111.293+74.2268+111.202+75.5298+111.023+76.6083ZM114.798+86.1126C117.18+78.1138+119.101+72.5416+120.561+69.3958C122.021+66.2503+123.673+64.1607+125.516+63.127L125.516+64.7448C125.516+65.2392+125.111+68.1602+124.302+73.5076L123.291+80.1809C123.291+80.3157+123.18+80.7427+122.954+81.4616C122.729+82.3155+122.573+83.1019+122.482+83.8208C121.764+84.0007+120.258+84.4725+117.966+85.2364C116.304+85.8207+115.247+86.1126+114.798+86.1126ZM111.9+87.8652C109.294+95.325+106.282+100.672+102.867+103.908C99.4521+107.143+95.0707+108.761+89.723+108.761C83.0723+108.761+77.3651+106.144+72.6018+100.908C67.8384+95.6732+65.4567+89.4381+65.4567+82.2031C65.4567+74.2042+68.0407+67.3513+73.2084+61.6441C78.3762+55.9371+84.6901+52.9937+92.1497+52.8139C90.2174+56.0045+89.2512+59.5321+89.2512+63.3967C89.2512+68.0254+90.6779+71.9349+93.5315+75.1254C96.3851+78.316+99.8789+79.9112+104.013+79.9112C106.035+79.9112+108.192+79.372+110.484+78.2935C109.54+81.7986+108.013+84.7422+105.901+87.1237C104.373+86.944+103.047+86.1577+101.924+84.7645L101.047+85.5734C101.946+86.6519+103.339+87.5282+105.227+88.2022C101.272+92.1118+97.1152+94.0666+92.7563+94.0666C89.0264+94.0666+85.8471+92.7185+83.2183+90.0222C80.5894+87.326+79.275+84.0456+79.275+80.1809C79.275+78.2486+79.4998+76.586+79.9491+75.1928L79.0728+74.9906C78.4436+77.4172+78.1291+79.0575+78.1291+79.9112C78.1291+84.3601+79.612+88.0674+82.5779+91.0333C85.5438+93.9992+89.2063+95.4821+93.5652+95.4821C99.1825+95.4821+103.923+93.1454+107.788+88.4719C108.282+88.4719+109.652+88.2696+111.9+87.8652ZM112.439+86.5845C109.698+86.944+108.462+87.1237+108.731+87.1237C110.259+84.6971+111.495+81.3493+112.439+77.0802C115.719+74.3839+118.236+70.1598+119.988+64.4078L118.91+64.4078C117.876+68.3173+115.809+72.1146+112.708+75.7995L112.708+73.5076C112.708+67.7557+111.057+62.9248+107.754+59.0152C104.451+55.1057+99.9463+52.7241+94.2393+51.8702C98.014+47.1968+102.732+44.8599+108.395+44.8599C113.113+44.8599+117.022+46.3991+120.123+49.4772C123.224+52.5556+125.021+56.6785+125.516+61.8463C123.493+62.79+122.011+64.0033+121.067+65.4863C120.123+66.9692+118.596+70.4743+116.483+76.0017L112.439+86.5845ZM63.9063+80.9898C63.9063+89.0785+66.4453+95.9428+71.5233+101.582C76.6013+107.222+82.7353+110.042+89.9252+110.042C96.0818+110.042+101.104+108.256+104.991+104.683C108.877+101.111+112.057+95.3473+114.528+87.3934C117.404+86.7193+120.056+85.843+122.482+84.7645C121.808+88.2696+121.471+91.64+121.471+94.8755C121.471+100.987+122.628+105.863+124.943+109.503C127.258+113.143+130.346+114.963+134.211+114.963C138.839+114.963+141.154+112.738+141.154+108.289L140.278+108.289C140.278+112.019+138.637+113.884+135.357+113.884C130.19+113.884+127.605+109.188+127.605+99.7962C127.605+93.9543+128.077+88.7866+129.021+84.2927C130.773+84.6074+132.368+85.6408+133.807+87.3934L134.683+86.9215C133.514+85.0792+131.627+83.8659+129.021+83.2816C130.009+75.4624+130.504+69.4409+130.504+65.2166C130.504+58.6559+128.616+53.3868+124.842+49.4098C121.067+45.4328+116.123+43.4444+110.012+43.4444C102.598+43.4444+96.913+46.2531+92.9585+51.8702L90.7341+51.8702C83.4542+51.8702+77.1629+54.7463+71.8603+60.4982C66.5577+66.2503+63.9063+73.0808+63.9063+80.9898" fill-rule="evenodd" fill="#4a4a5a" opacity="1"/>
</g>
<g id="þÿ_2" vectornator:layerName="þÿ">
<path d="M97.6007+38.1521C98.7692+40.5787+100.544+41.792+102.926+41.792C106.116+41.792+108.857+40.2303+111.149+37.1073C113.441+33.984+114.587+30.243+114.587+25.8841C114.587+22.9631+114.126+20.3342+113.205+17.9975C112.284+15.6607+110.722+13.0992+108.521+10.3132C110.408+8.65038+112.723+7.81915+115.463+7.81915C116.228+7.81915+116.969+7.90891+117.688+8.08877L117.957+7.01027C117.239+6.8304+116.316+6.74065+115.194+6.74065C112.723+6.74065+110.115+7.57187+107.375+9.23468C100.949+3.07817+93.5338+0+85.1305+0C77.0417+0+70.2562+2.60632+64.7738+7.81915C56.9546+9.52666+50.8206+12.942+46.3718+18.0649C41.923+23.1878+39.6986+29.4341+39.6986+36.8039C39.6986+45.2971+42.451+52.5208+47.9558+58.4751C53.4606+64.4292+60.1901+67.4065+68.1441+67.4065C84.0969+67.4065+93.7585+58.4863+97.1289+40.6461L97.6007+38.1521ZM107.105+11.1895C109.171+14.3351+110.206+18.1323+110.206+22.5812C110.206+26.3109+109.262+30.3104+107.375+34.5795C105.712+38.3092+103.959+40.1743+102.117+40.1743C99.6903+40.1743+98.477+38.3992+98.477+34.8491C98.477+30.8048+100.611+28.2208+104.881+27.0974L104.881+25.8841C103.038+26.1537+101.286+27.0974+99.6229+28.7152C101.241+23.1428+102.499+19.2782+103.398+17.1212C104.386+14.7844+105.622+12.8072+107.105+11.1895ZM106.296+9.84134C102.926+13.2117+100.387+16.3798+98.6792+19.3457C96.9715+22.3115+95.0393+27.03+92.8823+33.501C90.186+41.5898+88.5234+46.4205+87.8942+47.9934C87.0853+50.1504+85.9619+52.4422+84.5239+54.8689C82.5017+58.3289+79.8728+61.0589+76.6373+63.0588C73.4018+65.0584+70.0089+66.0583+66.4589+66.0583C59.7632+66.0583+53.9101+63.261+48.8995+57.6662C43.8889+52.0715+41.3837+45.5668+41.3837+38.1521C41.3837+31.3215+43.361+25.3335+47.3155+20.1882C51.2699+15.0428+56.6176+11.4815+63.3582+9.50431C61.6956+11.7062+60.5834+13.5599+60.0216+15.0653C59.4598+16.5706+59.179+18.4243+59.179+20.6264C59.179+25.21+60.7631+29.0971+63.9312+32.2877C67.0993+35.4782+70.9077+37.0736+75.3566+37.0736C80.4346+37.0736+84.7935+35.1188+88.4334+31.2092C87.8493+36.4669+85.7146+40.9381+82.0298+44.6231C78.345+48.3079+74.1881+50.1504+69.5596+50.1504C65.74+50.1504+62.4482+48.7686+59.6846+46.0049C56.9209+43.2412+55.5391+39.9944+55.5391+36.2647C55.5391+34.6019+55.8536+32.9167+56.4828+31.2092L55.2694+31.2092C54.7302+32.5123+54.4606+34.1077+54.4606+35.995C54.4606+40.4439+55.9998+44.1512+59.0779+47.1171C62.1561+50.083+65.9197+51.5659+70.3685+51.5659C76.0306+51.5659+80.6929+49.4987+84.3553+45.3646C88.0178+41.2302+89.9389+35.8826+90.1186+29.3218C92.7249+25.6368+94.0282+21.525+94.0282+16.9864C94.0282+15.7731+93.7585+13.7509+93.2193+10.9198L92.1408+11.1895C92.6352+14.0205+92.8823+16.0651+92.8823+17.3235C92.8823+20.9634+91.9611+24.2887+90.1186+27.2996C89.3996+21.4576+87.0741+16.7055+83.142+13.0431C79.2099+9.38067+74.368+7.54952+68.6159+7.54952C68.1216+7.54952+67.4925+7.63928+66.7285+7.81915C71.3571+3.37032+77.3788+1.14591+84.7935+1.14591C93.6012+1.14591+100.769+4.04439+106.296+9.84134ZM88.7031+29.3218C84.7035+33.7706+80.3447+35.995+75.6262+35.995C71.447+35.995+67.8856+34.5345+64.9423+31.6136C61.9989+28.6926+60.5272+25.1201+60.5272+20.896C60.5272+16.4921+62.1449+12.605+65.3804+9.23468C66.2792+9.00993+67.3577+8.89765+68.6159+8.89765C74.4578+8.89765+79.2099+10.7625+82.8724+14.4924C86.5349+18.2221+88.4783+23.1653+88.7031+29.3218Z" fill-rule="evenodd" fill="#4a4a5a" opacity="1"/>
</g>
</svg>
