<?xml version="1.0" encoding="UTF-8"?>
<!DOCTYPE svg PUBLIC "-//W3C//DTD SVG 1.1//EN" "http://www.w3.org/Graphics/SVG/1.1/DTD/svg11.dtd">
<!-- Creator: CorelDRAW 2020 (64-Bit) -->
<svg xmlns="http://www.w3.org/2000/svg" xml:space="preserve" width="17px" height="24px" version="1.1" shape-rendering="geometricPrecision" text-rendering="geometricPrecision" image-rendering="optimizeQuality" fill-rule="evenodd" clip-rule="evenodd"
viewBox="0 0 300 420"
 xmlns:xlink="http://www.w3.org/1999/xlink"
 xmlns:xodm="http://www.corel.com/coreldraw/odm/2003"
 enable-background="new 0 0 509.217 509.217">
 <g id="Слой_x0020_1">
  <metadata id="CorelCorpID_0Corel-Layer"/>
  <g id="_2880320937888">
   <path fill="white" fill-rule="nonzero" d="M150 0c-110,0 -180,120 -130,220l70 160c20,50 90,50 120,0l70 -160c50,-100 -20,-220 -130,-220zm110 200c0,0 0,0 -80,170 -10,30 -50,30 -60,0 -80,-170 -80,-170 -80,-170 -40,-80 20,-170 110,-170 90,0 150,90 110,170l0 0z"/>
   <path fill="white" fill-rule="nonzero" d="M150 80c-40,0 -70,30 -70,70 0,40 30,70 70,70 40,0 70,-30 70,-70 0,-40 -30,-70 -70,-70zm0 120c-30,0 -50,-30 -50,-50 0,-30 20,-50 50,-50 20,0 50,20 50,50 0,20 -30,50 -50,50z"/>
  </g>
 </g>
</svg>
