<?xml version="1.0" encoding="UTF-8"?>
<!DOCTYPE svg PUBLIC "-//W3C//DTD SVG 1.0//EN" "http://www.w3.org/TR/2001/REC-SVG-20010904/DTD/svg10.dtd">
<!-- Creator: CorelDRAW 2020 (64-Bit) -->
<svg xmlns="http://www.w3.org/2000/svg" xml:space="preserve" width="163px" height="145px" version="1.0" style="shape-rendering:geometricPrecision; text-rendering:geometricPrecision; image-rendering:optimizeQuality; fill-rule:evenodd; clip-rule:evenodd"
viewBox="0 0 520100 462000"
 xmlns:xlink="http://www.w3.org/1999/xlink"
 xmlns:xodm="http://www.corel.com/coreldraw/odm/2003">
 <defs>
  <style type="text/css">
   <![CDATA[
    .fil0 {fill:black;fill-rule:nonzero}
   ]]>
  </style>
 </defs>
 <g id="Слой_x0020_1">
  <metadata id="CorelCorpID_0Corel-Layer"/>
  <path class="fil0" d="M516600 370400c0,6400 -5300,11700 -11800,11700 -6500,0 -11700,-5300 -11700,-11700 0,-6500 5200,-11800 11700,-11800 6500,0 11800,5300 11800,11800zm-358100 56400c0,0 11200,2100 28900,7900 17800,5800 32300,5800 45100,300 12800,-5500 29200,-1800 42000,3700 12900,5500 50100,19800 61200,21900 11200,2200 17400,-3000 19100,-8800 0,0 -6200,1500 -20700,-900 -14500,-2500 -50300,-8300 -71000,-26000 -20800,-17600 -30000,-34000 -49000,-38000 -19100,-4000 -29000,-10400 -29000,-10400 0,0 13800,35700 45400,42100 0,0 -31900,-6100 -50000,-1200 -18000,4800 -22000,9400 -22000,9400l0 0zm7900 27100c0,0 5600,13700 28900,5500 23400,-8200 39800,-16500 52000,-18900 0,0 -9600,-2800 -29300,3000 -19700,5800 -35800,10400 -51600,10400l0 0zm-7300 -432500c0,0 19000,-24400 53200,-18000 0,0 -7200,17700 -53200,18000zm-24400 17600c0,0 14500,-17300 46000,-10600 0,0 -14800,13400 -46000,10600zm-17700 -300c0,0 8200,-24700 41400,-32300 0,0 -1600,20100 -41400,32300zm-19100 22200c0,0 13500,-19400 42400,-14900 0,0 -12800,15900 -42400,14900zm-20100 7700c0,0 -3900,-20500 34500,-41100 0,0 -2300,17600 -34500,41100zm-8200 20700c0,0 11900,-23800 45400,-22600 0,0 -13800,19800 -45400,22600zm-22700 18300c0,0 19100,-14300 21400,-47600 0,0 -14800,7900 -19400,18000 -4600,10100 -2000,29600 -2000,29600zm-1000 21600c0,0 6900,-26800 39200,-36600 0,0 -5000,18000 -39200,36600zm-19000 27400c0,0 -2300,-14300 -3700,-25000 -1200,-10700 7600,-21300 15800,-31600 0,0 4600,18500 -1600,33100 -6300,14700 -10500,23500 -10500,23500zm4900 24400c0,0 -5300,-28400 28000,-48500 0,0 -5000,23500 -15200,34500 -10200,10900 -12800,14000 -12800,14000zm-12200 22200c0,0 9900,-28000 -3300,-59100 0,0 -9500,11600 -9500,29200 0,17700 12800,29900 12800,29900zm9100 18500c0,0 -7600,-26900 22500,-47900 0,0 -4200,10400 -5400,19100 -1300,8700 -8700,19000 -12400,22400 -3700,3400 -4700,6400 -4700,6400l0 0zm-5600 31500c0,0 2900,-34700 -20800,-61000 0,0 -5800,26500 1100,38900 6800,12300 17500,18500 19700,22100l0 0zm15500 19700c0,0 -21200,-29700 4500,-54600 0,0 -300,11200 500,16200 700,5000 1400,18500 -1500,24900 -3000,6400 -3500,13500 -3500,13500zm-1000 20100c0,0 -13000,-8200 -20400,-14400 -7500,-6200 -15800,-21900 -15800,-33600 0,0 24900,13700 36200,48000zm25900 23500c0,0 -26100,-24900 -12800,-54300 0,0 3700,10500 9100,18200 5500,7800 6000,21500 3700,36100zm700 17900c0,0 -36900,-7600 -47500,-42100 0,0 32700,12800 47500,42100zm36100 21600c0,0 -32600,-17100 -27200,-48600 0,0 19500,14100 27200,48600zm4400 11900c0,0 -21500,-24200 -61100,-31700 0,0 2400,2900 9600,13000 7100,10000 16200,14600 27100,16000 10800,1400 24400,2700 24400,2700zm35500 23600c0,0 -34800,-22400 -72000,-20100 0,0 9400,5900 13800,11600 4400,5700 18500,9600 32300,8900 13800,-700 25900,-400 25900,-400l0 0zm5200 -6000c0,0 -40400,-14400 -43700,-50500 0,0 9700,6900 16300,11700 6700,4800 13100,12500 16300,20500 3200,8000 11100,18300 11100,18300l0 0zm37500 23100c0,0 -33800,-16500 -78900,-7300 0,0 12600,6200 22200,11900 9600,5700 26800,5200 34500,1600 7600,-3700 22200,-6200 22200,-6200l0 0zm12100 -2700c0,0 -8700,-6900 -14300,-17400 -5700,-10500 -11900,-18500 -22500,-21300 -10600,-2700 -15500,-2900 -18700,-9300 0,0 10100,38100 55500,48000l0 0zm166100 -384500c0,0 -19100,-24400 -53300,-18000 0,0 7200,17700 53300,18000zm24300 17600c0,0 -14500,-17300 -46100,-10600 0,0 14800,13400 46100,10600zm17700 -300c0,0 -8200,-24700 -41400,-32300 0,0 1700,20100 41400,32300zm19100 22200c0,0 -13500,-19400 -42400,-14900 0,0 12800,15900 42400,14900zm20100 7700c0,0 3900,-20500 -34600,-41100 0,0 2300,17600 34600,41100zm8200 20700c0,0 -11900,-23800 -45400,-22600 0,0 13800,19800 45400,22600zm22700 18300c0,0 -19100,-14300 -21400,-47600 0,0 14800,7900 19400,18000 4600,10100 2000,29600 2000,29600zm900 21600c0,0 -6800,-26800 -39100,-36600 0,0 5000,18000 39100,36600zm19100 27400c0,0 2300,-14300 3600,-25000 1400,-10700 -7500,-21300 -15700,-31600 0,0 -4600,18500 1600,33100 6300,14700 10500,23500 10500,23500zm-4900 24400c0,0 5200,-28400 -27900,-48500 0,0 4900,23500 15100,34500 10200,10900 12800,14000 12800,14000zm12200 22200c0,0 -9900,-28000 3300,-59100 0,0 9500,11600 9500,29200 0,17700 -12800,29900 -12800,29900zm-9200 18500c0,0 7700,-26900 -22400,-47900 0,0 4200,10400 5400,19100 1200,8700 8700,19000 12400,22400 3600,3400 4600,6400 4600,6400l0 0zm5700 31500c0,0 -3000,-34700 20700,-61000 0,0 5900,26500 -1000,38900 -6900,12300 -17500,18500 -19700,22100l0 0zm-15500 19700c0,0 21200,-29700 -4500,-54600 0,0 300,11200 -500,16200 -700,5000 -1500,18500 1500,24900 3000,6400 3500,13500 3500,13500zm1000 20100c0,0 13000,-8200 20500,-14400 7300,-6200 15700,-21900 15700,-33600 0,0 -24900,13700 -36200,48000zm-25900 23500c0,0 26100,-24900 12800,-54300 0,0 -3700,10500 -9100,18200 -5500,7800 -6000,21500 -3700,36100zm-800 17900c0,0 37000,-7600 47600,-42100 0,0 -32800,12800 -47600,42100zm-36000 21600c0,0 32600,-17100 27100,-48600 0,0 -19400,14100 -27100,48600zm-4400 11900c0,0 21400,-24200 61100,-31700 0,0 -2400,2900 -9600,13000 -7100,10000 -16300,14600 -27100,16000 -10900,1400 -24400,2700 -24400,2700zm-35500 23600c0,0 34700,-22400 72000,-20100 0,0 -9400,5900 -13800,11600 -4500,5700 -18500,9600 -32300,8900 -13800,-700 -25900,-400 -25900,-400l0 0zm-5200 -6000c0,0 40400,-14400 43600,-50500 0,0 -9600,6900 -16200,11700 -6700,4800 -13100,12500 -16300,20500 -3200,8000 -11100,18300 -11100,18300zm-37500 23100c0,0 33800,-16500 78900,-7300 0,0 -12500,6200 -22200,11900 -9600,5700 -26900,5200 -34500,1600 -7700,-3700 -22200,-6200 -22200,-6200l0 0zm-12100 -2700c0,0 8700,-6900 14300,-17400 5700,-10500 11800,-18500 22500,-21300 10600,-2700 15500,-2900 18700,-9300 0,0 -10100,38100 -55500,48000l0 0zm-55500 13400c0,0 10900,-6400 17800,-18000 6900,-11700 15000,-15300 24400,-16700 9400,-1400 21700,-4600 24400,-10500 0,0 -3900,24000 -42400,42700 0,0 27600,-12300 73000,6900 0,0 -14300,0 -25100,6100 -10900,6200 -48200,19500 -72100,-10500l0 0zm-239200 -37200c0,6400 -5200,11700 -11700,11700 -6500,0 -11800,-5300 -11800,-11700 0,-6500 5300,-11700 11800,-11700 6500,0 11700,5200 11700,11700z"/>
  <path class="fil0" d="M360700 21400c-2100,-500 -4900,-800 -8400,-800 -7600,0 -15600,2500 -23900,7600 -19700,-18800 -42300,-28200 -68000,-28200 -24700,0 -45500,8000 -62200,23900 -23400,5200 -41800,15200 -55200,30000 -14300,15900 -21500,35400 -21500,58500 0,25400 8100,47100 24100,65200 16700,18700 37600,28000 62900,28000 48700,0 78200,-27200 88500,-81500l1500 -7600c3400,7400 8800,11100 16300,11100 11000,0 19900,-5600 26700,-16700 5900,-9600 8900,-20200 8900,-31900 0,-16000 -6200,-31900 -18500,-47500 5600,-5100 12700,-7600 21200,-7600 2500,0 4700,200 6800,800l800 -3300zm-23700 47500c0,11600 -2900,23800 -8600,36700 -5300,11400 -10600,17100 -16100,17100 -7400,0 -11100,-5500 -11100,-16300 0,-12200 6500,-20100 19500,-23700l0 -3700c-5600,900 -10900,3700 -16000,8700 4400,-15300 7200,-24700 8600,-28200 4100,-10900 8900,-19300 14200,-25300 6400,9600 9500,21200 9500,34700zm-65700 20600c-12200,13600 -25500,20400 -40000,20400 -12900,0 -23800,-4500 -32700,-13400 -8900,-8900 -13400,-19800 -13400,-32700 0,-13400 4900,-25300 14800,-35600 3000,-700 6300,-1000 9900,-1000 18300,0 33000,5900 44100,17700 11000,11400 16700,26200 17300,44600zm53800 -59500c-11200,11200 -19700,22200 -25600,33200 -4400,8500 -9500,21500 -15400,39100 -4000,11600 -7300,21200 -9800,28500 -2600,7300 -4400,12600 -5500,15700 -1300,3500 -2900,6900 -4500,10400 -1700,3500 -3600,7100 -5800,10600 -5700,9900 -13400,18000 -23000,24300 -10200,6500 -20900,9700 -32200,9700 -21400,0 -39700,-8900 -55000,-26800 -14400,-17000 -21600,-36400 -21600,-58200 0,-21000 6100,-39500 18300,-55400 12100,-15300 28400,-26000 48800,-32100 -2300,3200 -4300,6100 -5900,8700 -1700,2600 -2900,5000 -3700,7200 -2100,5200 -3100,11200 -3100,18100 0,13800 4700,25700 14200,35600 9700,9700 21500,14600 35200,14600 15500,0 28900,-6000 40000,-17900 -1700,15200 -7800,28500 -18400,39900 -11400,12000 -24500,17900 -39300,17900 -11800,0 -21900,-4100 -30300,-12300 -8400,-8400 -12500,-18400 -12500,-30100 0,-4900 900,-10100 2800,-15400l-3700 0c-1600,4000 -2400,8800 -2400,14600 0,13600 4600,24900 14000,34000 9200,9000 20700,13500 34600,13500 18400,0 33100,-6800 44300,-20500 10000,-12500 15300,-28300 16000,-47400 8000,-11200 12000,-23800 12000,-37600 0,-3700 -900,-9900 -2500,-18600l-3300 900c700,4400 1200,8100 1700,11200 400,3100 600,5600 600,7500 0,11000 -2800,21100 -8500,30500 -2200,-17900 -9200,-32400 -21200,-43500 -11800,-11200 -26600,-16800 -44500,-16800 -1800,0 -3700,200 -5800,800 14200,-13600 32600,-20400 55300,-20400 26900,0 48800,8800 65700,26500z"/>
  <path class="fil0" d="M256900 176500l0 -3500c-2900,-500 -5200,-900 -6900,-1100 -1700,-200 -2600,-300 -2900,-300 -6800,0 -13400,2700 -19900,8100 -20200,-16400 -41000,-24500 -62500,-24500 -12400,0 -24100,2400 -35000,7200 -11500,5000 -21100,12100 -28800,21500 -20300,4600 -36900,14300 -49600,29200 -12600,15100 -19000,33300 -19000,54500 0,24200 7700,45000 23200,62100 15800,17600 35600,26400 59400,26400 25400,0 46700,-9700 63800,-29000 -700,3000 -1000,5600 -1000,7800 0,13600 6300,20400 18800,20400 11100,0 21000,-5300 29700,-15700 6700,-8100 11900,-18500 15300,-31200 2700,2800 5300,7100 8000,12900l3200 -1600c-1900,-6200 -5100,-11600 -9600,-16300l0 -4100c600,-2200 800,-5400 800,-9600 0,-12100 -5600,-22700 -16700,-32000 8100,-3300 14000,-7600 17700,-12900 3700,-5200 5600,-12200 5600,-21100 0,-14400 -7000,-28300 -21100,-41600 6500,-4400 12700,-6600 18700,-6600 1300,0 2700,100 4100,300 1400,200 3000,400 4700,700zm-21800 40800c0,17800 -4300,30200 -13100,37200 -3200,-1600 -5900,-2400 -8000,-2400 -3300,0 -5000,1100 -5000,3200 0,2800 2500,4200 7400,4200 700,0 1600,-100 2800,-400 1200,-200 2100,-400 2800,-400 4400,4900 6600,11100 6600,18700 0,1500 -100,3600 -300,6400 -200,2700 -600,6000 -1100,9900 -3500,-1200 -7100,-1800 -10800,-1800 -8800,0 -16800,3000 -24100,9100 5300,-16300 9000,-31500 11100,-45700 1500,-9200 2800,-16900 3900,-23000 1200,-6100 2100,-10700 2900,-13800 3700,-14600 9100,-25700 16000,-33200 6000,9100 8900,19800 8900,32000zm-60600 23500c-11300,13400 -23900,20100 -37900,20100 -12100,0 -22400,-4100 -31100,-12400 -8400,-8500 -12500,-18900 -12500,-31200 0,-13000 3200,-23100 9700,-30200 10500,-1200 15100,-1800 13600,-1800 16300,0 29800,5200 40500,15500 10200,10200 16100,23500 17700,40000zm51700 56900c-3000,12100 -6500,22600 -10800,31600 -7000,14100 -14500,21100 -22300,21100 -3800,0 -6700,-1600 -8900,-4800 -2200,-3200 -3300,-6800 -3300,-10700 0,-10100 3300,-19300 10000,-27500 6800,-8100 15300,-12100 25500,-12100 1500,0 4700,800 9800,2400zm-3200 -115600c-8300,8300 -14400,16200 -18600,23500 -3600,6700 -7900,19200 -13100,37400 -9100,32900 -17200,56100 -24600,69800 -14400,26700 -32900,40000 -55200,40000 -21100,0 -38900,-8400 -53400,-25300 -14000,-16100 -21000,-35000 -21000,-56700 0,-19600 5500,-36700 16600,-51300 10700,-14100 25400,-24400 44000,-31000 -5300,9000 -7900,18300 -7900,27800 0,13800 4400,25300 13300,34400 9100,9100 20200,13700 33500,13700 14000,0 26600,-5700 37900,-17100 -900,15500 -6600,29100 -16900,40800 -10800,12300 -23800,18500 -38900,18500 -11400,0 -21000,-4000 -28700,-12100 -7700,-8200 -11600,-17900 -11600,-29300 0,-3400 800,-8200 2400,-14500l-3200 0c-1600,4700 -2400,9500 -2400,14500 0,13200 4400,24200 13200,32700 8900,8600 19800,12900 32900,12900 16100,0 29800,-6400 41300,-19100 10700,-12200 16100,-26700 16100,-43400l0 -6700c6800,-11800 10200,-23800 10200,-36000 0,-5500 -1400,-11600 -4000,-18500l-2400 1400c2100,6500 3200,12400 3200,17900 0,9200 -2700,19000 -8000,29600 -2800,-16000 -9500,-28900 -20100,-38800 -11100,-10100 -24600,-15100 -40500,-15100l-10600 0c15700,-15700 35100,-23500 58200,-23500 22300,0 41700,7800 58300,23500z"/>
  <path class="fil0" d="M431800 331200l-2600 0c0,11400 -5000,17100 -15000,17100 -15800,0 -23600,-14200 -23600,-42700 0,-17700 1400,-33500 4300,-47300 5500,1100 10300,4300 14600,9500l2600 -1500c-3500,-5400 -9300,-9100 -17200,-11100 1500,-12000 2600,-22600 3400,-31600 700,-9000 1100,-16800 1100,-23400 0,-19500 -5500,-35300 -16400,-47500 -11400,-12600 -26700,-18900 -46000,-18900 -22500,0 -39800,8600 -52000,25700l-6800 0c-23100,0 -42700,9100 -58700,27300 -15400,17400 -23000,37900 -23000,61500 0,23500 7200,43900 21500,61200 15400,18100 34600,27100 57800,27100 20600,0 37200,-6700 49700,-19900 10100,-10700 18500,-27000 25200,-48900 8600,-2100 16700,-4800 24300,-8000 -2100,10600 -3100,20900 -3100,30800 0,15200 2600,28300 7800,39400 6700,14400 17000,21600 31000,21600 14100,0 21100,-6800 21100,-20400zm-47600 -132500c0,1700 -1200,10600 -3700,26700l-3100 20400c0,400 -100,1100 -300,2200 -200,1100 -500,2200 -800,3300 -300,1100 -700,2200 -900,3300 -300,1100 -400,1900 -400,2300 -3100,700 -7600,2100 -13800,4300 -4900,1800 -8100,2700 -9700,2700 2900,-9900 5300,-17900 7300,-24200 2000,-6200 3600,-10700 4700,-13400 6800,-17700 13700,-28500 20700,-32500l0 4900zm0 -8800c-7300,3600 -13100,9700 -17700,18500 -1100,1900 -4300,10100 -9800,24600l-12300 32300c-4300,500 -7300,1000 -9200,1200 -1800,300 -2600,400 -2100,400 4600,-7200 8400,-17400 11300,-30600 10000,-8000 17600,-20900 23000,-38600l-3300 0c-3000,11700 -9300,23200 -18900,34700l0 -7000c0,-17600 -5100,-32300 -15200,-44100 -10000,-11900 -23700,-19200 -41100,-21800 11500,-14200 25900,-21400 43100,-21400 15000,0 27100,5000 36600,14800 9000,9600 14200,21900 15600,37000zm-43300 33100c0,2300 -100,4500 -200,6500 -200,1900 -400,3800 -700,5400 -7100,4700 -14200,7000 -21300,7000 -12300,0 -22500,-4900 -30600,-14600 -7600,-9200 -11300,-20100 -11300,-32700 0,-10700 3300,-21400 10000,-32200 16300,2300 29400,8900 39300,19700 9800,11000 14800,24600 14800,40900zm1800 46200c-7000,20000 -14700,34800 -23200,44400 -11500,12700 -26300,19100 -44400,19100 -21000,0 -38800,-8200 -53200,-24700 -13800,-16100 -20700,-34800 -20700,-56100 0,-23600 7500,-44200 22600,-61600 15600,-18100 35200,-27400 58700,-27900 -5900,9600 -8800,20300 -8800,32200 0,13600 4000,25200 12100,35000 8600,10200 19600,15400 32900,15400 6100,0 12700,-1700 19700,-5000 -2900,10700 -7500,19700 -14000,26900 -4600,-500 -8700,-2900 -12100,-7100l-2700 2400c2600,3300 6900,6000 12800,8000 -12200,11900 -24900,17900 -38000,17900 -11700,0 -21400,-4100 -29400,-12300 -7800,-8400 -11700,-18400 -11700,-30000 0,-6000 700,-11100 2100,-15200l-2700 -600c-1900,7600 -2900,12600 -2900,15000 0,13400 4500,24700 13400,33900 9000,9000 20200,13500 33600,13500 17200,0 31600,-7100 43400,-21300 1500,0 5700,-700 12500,-1900z"/>
 </g>
</svg>
