<?xml version="1.0" encoding="UTF-8"?>
<!DOCTYPE svg PUBLIC "-//W3C//DTD SVG 1.1//EN" "http://www.w3.org/Graphics/SVG/1.1/DTD/svg11.dtd">
<!-- Creator: CorelDRAW 2020 (64-Bit) -->
<svg xmlns="http://www.w3.org/2000/svg" xml:space="preserve" width="24px" height="18px" version="1.1" shape-rendering="geometricPrecision" text-rendering="geometricPrecision" image-rendering="optimizeQuality" fill-rule="evenodd" clip-rule="evenodd"
viewBox="0 0 570 440"
 xmlns:xlink="http://www.w3.org/1999/xlink"
 xmlns:xodm="http://www.corel.com/coreldraw/odm/2003">
 <g id="Слой_x0020_1">
  <metadata id="CorelCorpID_0Corel-Layer"/>
  <g id="_2880052304256">
   <g>
    <g>
     <path fill="white" fill-rule="nonzero" d="M520 0l-470 0c-30,0 -50,20 -50,50l0 340c0,20 20,50 50,50l470 0c30,0 50,-30 50,-50l0 -340c0,-30 -20,-50 -50,-50zm0 30l-230 230 -230 -230 460 0zm-490 350l0 -320 170 160 -170 160zm30 20l160 -160 60 60c0,0 10,0 20,0l60 -60 160 160 -460 0zm480 -20l-160 -160 160 -160 0 320z"/>
    </g>
   </g>
   <g>
   </g>
   <g>
   </g>
   <g>
   </g>
   <g>
   </g>
   <g>
   </g>
   <g>
   </g>
   <g>
   </g>
   <g>
   </g>
   <g>
   </g>
   <g>
   </g>
   <g>
   </g>
   <g>
   </g>
   <g>
   </g>
   <g>
   </g>
   <g>
   </g>
  </g>
 </g>
</svg>
