<?xml version="1.0" encoding="UTF-8"?>
<!DOCTYPE svg PUBLIC "-//W3C//DTD SVG 1.1//EN" "http://www.w3.org/Graphics/SVG/1.1/DTD/svg11.dtd">
<!-- Creator: CorelDRAW 2020 (64-Bit) -->
<svg xmlns="http://www.w3.org/2000/svg" xml:space="preserve" width="19px" height="24px" version="1.1" shape-rendering="geometricPrecision" text-rendering="geometricPrecision" image-rendering="optimizeQuality" fill-rule="evenodd" clip-rule="evenodd"
viewBox="0 0 390 480"
 xmlns:xlink="http://www.w3.org/1999/xlink"
 xmlns:xodm="http://www.corel.com/coreldraw/odm/2003"
 enable-background="new 0 0 24 24">
 <g id="Слой_x0020_1">
  <metadata id="CorelCorpID_0Corel-Layer"/>
  <g id="_2880591631968">
   <path fill="white" fill-rule="nonzero" d="M200 0c-130,0 -200,80 -200,180 0,40 20,90 60,110 10,10 10,0 20,-40 0,0 0,0 0,0 -60,-70 -10,-200 120,-200 180,0 140,250 30,250 -30,0 -60,-20 -50,-50 10,-30 30,-70 30,-100 0,-60 -100,-50 -100,30 0,30 10,50 10,50 0,0 -30,120 -30,140 -10,40 0,100 0,110 0,0 0,0 0,0 10,0 40,-50 50,-90 10,-20 20,-70 20,-70 10,20 40,30 70,30 100,0 160,-80 160,-180 0,-100 -80,-170 -190,-170l0 0z"/>
  </g>
 </g>
</svg>
