<?xml version="1.0" encoding="UTF-8"?>
<!DOCTYPE svg PUBLIC "-//W3C//DTD SVG 1.1//EN" "http://www.w3.org/Graphics/SVG/1.1/DTD/svg11.dtd">
<!-- Creator: CorelDRAW 2020 (64-Bit) -->
<svg xmlns="http://www.w3.org/2000/svg" xml:space="preserve" width="200px" height="200px" version="1.1" shape-rendering="geometricPrecision" text-rendering="geometricPrecision" image-rendering="optimizeQuality" fill-rule="evenodd" clip-rule="evenodd"
viewBox="0 0 984670 984670"
 xmlns:xlink="http://www.w3.org/1999/xlink"
 xmlns:xodm="http://www.corel.com/coreldraw/odm/2003">
 <g id="star">
  <metadata id="CorelCorpID_0Corel-Layer"/>
  <path fill="#E6E6E6" fill-rule="nonzero" d="M528780 52630c2140,84340 -35750,438240 -35750,438240 0,0 -53870,-347580 -53110,-428420 210,-22440 -4020,-61010 40910,-62400 44920,-1400 47390,30150 47950,52580zm126280 28990c-22490,81340 -161720,409220 -161720,409220 0,0 49550,-348210 73800,-425380 6740,-21420 13910,-59560 57320,-47970 43410,11580 36590,42490 30600,64130zm103630 57740c-43360,72520 -264950,352040 -264950,352040 0,0 140530,-322740 184470,-390770 12190,-18880 29270,-53760 68040,-31170 38780,22600 23970,50620 12440,69900zm91370 91380c-62600,56950 -356050,260790 -356050,260790 0,0 228430,-268520 290280,-321010 17170,-14560 43660,-43050 74200,-10260 30550,32780 8220,55340 -8430,70480zm60120 113750c-76430,36660 -416430,148010 -416430,148010 0,0 296430,-191890 370850,-224480 20650,-9050 54270,-28750 74040,11370 19770,40130 -8130,55360 -28460,65100zm25410 126350c-83820,13110 -441680,21920 -441680,21920 0,0 339580,-98440 420300,-108230 22410,-2720 60320,-11920 67570,32180 7250,44100 -23890,50650 -46190,54130zm-10280 117660c-84320,-9430 -431750,-95150 -431750,-95150 0,0 353680,-5520 434130,6290 22330,3280 61330,4390 56580,48820 -4750,44440 -36530,42550 -58960,40040zm-46110 120290c-77970,-33280 -385610,-215260 -385610,-215260 0,0 340160,96440 413730,130880 20420,9550 57440,21840 39960,63000 -17470,41170 -47340,30230 -68080,21380zm-421690 223240c-2140,-84330 35750,-438230 35750,-438230 0,0 53870,347580 53110,428420 -210,22440 4020,61000 -40910,62400 -44920,1400 -47390,-30150 -47950,-52590zm-318070 -173230c61800,-57810 352380,-265670 352380,-265670 0,0 -224660,271640 -285780,324970 -16960,14810 -43050,43650 -74050,11290 -31000,-32350 -8990,-55220 7450,-70590zm-62460 -112900c75980,-37570 414610,-152970 414610,-152970 0,0 -294090,195420 -368110,228890 -20540,9290 -53910,29400 -74170,-10490 -20260,-39890 7460,-55440 27670,-65430zm-25790 -115290c83270,-16220 440550,-38350 440550,-38350 0,0 -335640,111020 -415930,123810 -22280,3550 -59820,14150 -68730,-29650 -8910,-43790 21970,-51500 44110,-55810zm7600 -128630c84420,8420 432870,89990 432870,89990 0,0 -353590,9740 -434170,-1110 -22370,-3010 -61390,-3650 -57170,-48140 4210,-44490 36010,-42980 58470,-40740zm44490 -120380c78430,32200 388580,209910 388580,209910 0,0 -341490,-91730 -415530,-125150 -20550,-9280 -57730,-21050 -40830,-62460 16900,-41400 46920,-30870 67780,-22300zm77780 -103070c65710,53380 310890,312700 310890,312700 0,0 -300190,-186030 -361350,-239320 -16970,-14790 -49140,-36750 -20910,-71520 28220,-34770 53890,-16060 71370,-1860zm95060 -70830c49140,68780 216500,383390 216500,383390 0,0 -239920,-258420 -284700,-325900 -12430,-18730 -37600,-48380 -1120,-74480 36480,-26100 56250,-1300 69320,16990zm121030 -46070c27030,79970 95700,429260 95700,429260 0,0 -154480,-316370 -177710,-393850 -6440,-21500 -21920,-57120 20600,-71610 42510,-14500 54220,14930 61410,36200zm399470 752580c-64390,-55060 -303100,-320530 -303100,-320530 0,0 295600,193820 355430,248660 16600,15220 48230,38010 19110,71960 -29110,33940 -54320,14560 -71440,-90zm-96830 68450c-47310,-70030 -206310,-388900 -206310,-388900 0,0 233020,264590 276000,333220 11930,19040 36310,49340 -840,74480 -37160,25140 -56270,-170 -68850,-18800zm-122120 42730c-24910,-80640 -84340,-431600 -84340,-431600 0,0 146080,320290 167260,398350 5870,21660 20400,57670 -22490,71050 -42880,13380 -53800,-16350 -60430,-37800zm-235820 -18480c20260,-81920 150480,-413440 150480,-413440 0,0 -40020,349430 -62160,427220 -6140,21590 -12270,59910 -55980,49500 -43700,-10400 -37730,-41490 -32340,-63280zm-114160 -61000c43230,-72590 264330,-352480 264330,-352480 0,0 -139970,322970 -183790,391080 -12160,18900 -29170,53810 -67990,31280 -38810,-22530 -24050,-50570 -12550,-69880z"/>
 </g>
</svg>
