<?xml version="1.0" encoding="UTF-8"?>
<!DOCTYPE svg PUBLIC "-//W3C//DTD SVG 1.1//EN" "http://www.w3.org/Graphics/SVG/1.1/DTD/svg11.dtd">
<!-- Creator: CorelDRAW 2020 (64-Bit) -->
<svg xmlns="http://www.w3.org/2000/svg" xml:space="preserve" width="24px" height="24px" version="1.1" shape-rendering="geometricPrecision" text-rendering="geometricPrecision" image-rendering="optimizeQuality" fill-rule="evenodd" clip-rule="evenodd"
viewBox="0 0 580 580"
 xmlns:xlink="http://www.w3.org/1999/xlink"
 xmlns:xodm="http://www.corel.com/coreldraw/odm/2003">
 <g id="Слой_x0020_1">
  <metadata id="CorelCorpID_0Corel-Layer"/>
  <path fill="white" fill-rule="nonzero" d="M430 340c10,10 30,10 40,20 20,0 30,0 50,0 20,0 30,10 40,20 10,10 20,20 20,40l0 100c0,20 -10,30 -20,40 -10,10 -20,20 -40,20 -140,0 -270,-60 -370,-150 -90,-100 -150,-230 -150,-370 0,-20 10,-30 20,-40 10,-10 20,-20 40,-20l100 0c20,0 30,10 40,20 20,10 20,20 20,40 0,20 0,30 10,50 0,10 0,30 10,40l0 0c0,10 0,30 0,40 0,10 -10,20 -20,20l-30 60c10,20 30,50 50,70 20,20 50,40 80,60l50 -40c10,-10 20,-10 30,-20 10,0 20,0 30,0zm40 50c-20,0 -40,-10 -50,-10l0 0c-10,0 -10,0 -20,0 0,0 -10,0 -10,0l0 0 -70 60 -10 -10c-40,-20 -70,-40 -90,-70 -30,-20 -50,-50 -70,-90l0 -10 50 -70 0 0c0,0 0,-10 10,-10 0,-10 0,-10 0,-20 -10,-10 -10,-30 -20,-50 0,-10 0,-30 0,-50 0,-10 0,-10 -10,-20 0,0 -10,-10 -20,-10l-100 0c-10,0 -10,10 -20,10 0,10 -10,10 -10,20 0,140 60,260 150,350 80,80 210,140 340,140 10,0 20,-10 20,-10 0,0 10,-10 10,-20l0 -100c0,-10 -10,-10 -10,-20 0,0 -10,-10 -20,-10 -20,0 -30,0 -50,0z"/>
 </g>
</svg>
