<?xml version="1.0" encoding="UTF-8"?>
<!DOCTYPE svg PUBLIC "-//W3C//DTD SVG 1.1//EN" "http://www.w3.org/Graphics/SVG/1.1/DTD/svg11.dtd">
<!-- Creator: CorelDRAW 2020 (64-Bit) -->
<svg xmlns="http://www.w3.org/2000/svg" xml:space="preserve" width="24px" height="19px" version="1.1" shape-rendering="geometricPrecision" text-rendering="geometricPrecision" image-rendering="optimizeQuality" fill-rule="evenodd" clip-rule="evenodd"
viewBox="0 0 580 470"
 xmlns:xlink="http://www.w3.org/1999/xlink"
 xmlns:xodm="http://www.corel.com/coreldraw/odm/2003">
 <g id="Слой_x0020_1">
  <metadata id="CorelCorpID_0Corel-Layer"/>
  <g id="_2879939997376">
   <g>
    <g>
     <path fill="white" fill-rule="nonzero" d="M580 60c-30,0 -50,10 -70,10 20,-10 40,-30 50,-60 -20,10 -50,20 -80,30 -20,-30 -50,-40 -80,-40 -70,0 -120,50 -120,120 0,10 0,20 0,20 -90,0 -180,-50 -240,-120 -10,20 -20,40 -20,60 0,40 20,80 60,100 -20,0 -40,-10 -60,-20 0,0 0,10 0,10 0,50 40,100 100,110 -10,0 -20,10 -30,10 -10,0 -20,0 -30,-10 20,50 60,80 110,90 -40,30 -90,50 -140,50 -10,0 -20,0 -30,-10 50,40 110,60 180,60 220,0 340,-180 340,-340 0,0 0,-10 0,-10 20,-20 40,-40 60,-60z"/>
    </g>
   </g>
   <g>
   </g>
   <g>
   </g>
   <g>
   </g>
   <g>
   </g>
   <g>
   </g>
   <g>
   </g>
   <g>
   </g>
   <g>
   </g>
   <g>
   </g>
   <g>
   </g>
   <g>
   </g>
   <g>
   </g>
   <g>
   </g>
   <g>
   </g>
   <g>
   </g>
  </g>
 </g>
</svg>
